# xmcd CD database file generated by Grip 2.95
# 
# Track frame offsets:
#       182
#       13400
#       29605
#       43797
#       56252
#       66762
#       77875
#       92112
#       104187
#       117647
# 
# Disc length: 1765 seconds
# 
# Revision: 3
# Processed by: cddbd v1.4b41PL1 Copyright (c) Steve Scherf et al.
# Submitted via: Grip 2.95
# 
DISCID=9106e30a
DTITLE=Muddy Waters - Muddy's Blues
DYEAR=1900
DGENRE=
TTITLE0=The Stuff You Gotta Watch
TTITLE1=Iodine in My Coffe
TTITLE2=Close To You
TTITLE3=You Gonna Miss Me
TTITLE4=Mean Red Spider
TTITLE5=Diamonds at Your Feet
TTITLE6=You Gonna Need My Help
TTITLE7=She's All RIght
TTITLE8=So Glad I'm Living
TTITLE9=One More Mile
EXTD=
EXTT0=
EXTT1=
EXTT2=
EXTT3=
EXTT4=
EXTT5=
EXTT6=
EXTT7=
EXTT8=
EXTT9=
PLAYORDER=
